<?xml version="1.0" standalone="no"?>
<!DOCTYPE svg PUBLIC "-//W3C//DTD SVG 20010904//EN"
 "http://www.w3.org/TR/2001/REC-SVG-20010904/DTD/svg10.dtd">
<svg version="1.0" xmlns="http://www.w3.org/2000/svg"
 width="1563.000000pt" height="1563.000000pt" viewBox="0 0 1563.000000 1563.000000"
 preserveAspectRatio="xMidYMid meet">
<metadata>
Created by potrace 1.14, written by Peter Selinger 2001-2017
</metadata>
<g transform="translate(0.000000,1563.000000) scale(0.100000,-0.100000)"
fill="#000000" stroke="none">
<path d="M892 14033 c2 -15 6 -30 9 -33 4 -3 8 -18 10 -35 2 -16 7 -36 12 -42
5 -7 7 -13 4 -13 -3 0 -1 -15 4 -32 6 -18 13 -44 16 -58 10 -50 11 -55 13 -55
1 0 3 -9 5 -20 2 -11 8 -36 14 -55 38 -134 55 -193 73 -250 12 -36 21 -66 20
-67 0 -1 8 -26 19 -55 11 -29 22 -60 24 -68 2 -8 15 -51 30 -95 15 -44 28 -84
29 -90 1 -5 4 -14 7 -20 7 -11 23 -65 24 -80 0 -5 3 -14 7 -20 11 -18 80 -220
81 -237 1 -10 5 -18 9 -18 4 0 8 -8 8 -18 0 -10 3 -22 7 -25 11 -11 42 -107
35 -107 -4 0 -2 -4 4 -8 5 -4 25 -45 43 -92 64 -167 155 -352 193 -394 9 -10
22 -31 28 -47 7 -16 16 -29 20 -29 5 0 16 -13 27 -29 10 -16 45 -60 78 -97
106 -119 201 -204 346 -306 93 -67 109 -78 115 -78 3 0 25 -13 49 -30 24 -16
46 -30 50 -30 3 0 22 -11 43 -23 20 -13 69 -41 107 -62 39 -21 77 -43 85 -49
8 -7 35 -22 60 -36 25 -13 137 -76 250 -140 113 -64 225 -128 250 -142 35 -20
322 -184 575 -328 239 -137 399 -228 435 -248 25 -13 50 -28 55 -32 6 -4 30
-19 55 -32 86 -48 126 -70 217 -124 51 -30 94 -54 96 -54 3 0 34 -17 68 -38
35 -22 84 -50 109 -64 25 -14 88 -50 140 -80 52 -30 115 -66 140 -80 79 -44
454 -260 480 -276 14 -9 25 -15 25 -13 0 3 113 -63 131 -76 5 -4 26 -16 45
-27 62 -34 123 -68 254 -144 72 -41 150 -86 175 -100 255 -144 375 -216 385
-232 8 -12 -14 -4 -115 43 -41 19 -100 46 -130 60 -30 14 -100 46 -155 72 -55
26 -136 64 -180 85 -158 74 -282 133 -425 202 -200 97 -1004 499 -1081 541
-35 19 -122 65 -194 102 -293 152 -446 234 -527 281 -31 18 -58 30 -61 28 -2
-2 -10 2 -17 11 -7 8 -16 15 -20 15 -4 0 -76 39 -161 86 -149 84 -235 131
-309 170 -19 11 -37 21 -40 24 -3 3 -14 10 -25 16 -22 11 -365 207 -418 238
-18 10 -45 26 -62 35 -30 16 -92 54 -130 79 -11 6 -31 18 -45 24 -14 7 -27 15
-30 18 -3 3 -26 17 -52 30 -27 14 -48 28 -48 32 0 5 -4 8 -10 8 -5 0 -102 56
-216 125 -113 69 -210 125 -215 125 -5 0 -9 4 -9 8 0 5 -11 14 -24 20 -23 10
-24 10 -16 -17 12 -43 37 -95 105 -216 69 -123 109 -195 190 -340 12 -22 32
-58 45 -80 13 -22 36 -65 53 -95 16 -30 47 -85 68 -122 22 -36 39 -71 39 -76
0 -5 7 -15 15 -22 8 -7 12 -16 9 -21 -3 -5 -1 -9 4 -9 5 0 12 -8 16 -17 3 -10
26 -54 52 -98 25 -44 51 -92 57 -107 6 -16 15 -28 19 -28 4 0 8 -6 8 -14 0 -8
8 -22 18 -32 9 -10 16 -19 14 -21 -5 -6 140 -259 157 -273 3 -3 18 -21 32 -40
53 -71 168 -176 259 -237 56 -38 190 -106 250 -128 128 -46 336 -97 450 -109
25 -3 56 -8 70 -10 36 -7 326 -53 380 -61 14 -2 40 -6 58 -9 17 -3 44 -8 60
-10 15 -3 70 -12 122 -21 52 -9 110 -18 129 -21 18 -3 43 -8 55 -10 11 -2 102
-18 201 -34 99 -17 192 -32 208 -35 15 -3 39 -7 55 -10 85 -15 210 -37 232
-40 38 -5 100 -16 124 -21 11 -3 35 -7 51 -9 17 -3 41 -7 55 -10 14 -2 39 -7
55 -9 17 -3 98 -17 180 -31 83 -14 165 -28 184 -31 18 -3 43 -8 55 -10 11 -2
71 -13 131 -24 122 -21 358 -66 420 -80 27 -6 -1 -7 -85 -4 -133 5 -151 6
-505 29 -70 4 -199 14 -267 21 -31 3 -80 7 -108 9 -61 5 -170 14 -225 20 -22
2 -69 7 -105 10 -73 7 -94 9 -232 24 -54 6 -140 15 -190 21 -86 9 -137 15
-213 25 -16 2 -59 7 -95 10 -36 4 -76 8 -90 11 -14 2 -83 11 -155 20 -71 8
-141 17 -155 19 -14 3 -50 7 -80 11 -30 3 -66 7 -79 9 -13 3 -45 7 -70 11 -25
3 -57 8 -71 10 -14 2 -61 8 -105 14 -44 6 -91 13 -105 15 -25 4 -201 28 -295
41 -27 3 -59 8 -70 10 -11 2 -40 7 -65 10 -25 3 -49 8 -55 11 -20 9 104 -98
395 -343 162 -136 297 -250 300 -253 3 -4 21 -19 40 -35 41 -34 160 -139 202
-179 203 -193 337 -259 528 -260 l105 -1 -1 -126 c0 -69 -4 -132 -8 -138 -4
-7 -4 -12 1 -12 10 0 9 -292 -1 -308 -4 -7 -4 -12 1 -12 10 0 9 -1572 -1
-1588 -4 -7 -4 -12 1 -12 4 0 8 -49 7 -110 -1 -94 1 -110 15 -111 9 0 384 -1
834 -1 449 0 817 -4 817 -8 0 -5 -3 -10 -7 -12 -5 -1 -24 -24 -43 -49 -87
-113 -296 -333 -409 -429 -29 -25 -67 -58 -84 -74 -46 -40 -278 -213 -372
-277 -44 -29 -163 -103 -264 -164 -102 -62 -187 -117 -189 -123 -3 -11 221
-16 583 -14 176 1 355 56 498 153 201 137 430 467 603 869 l53 125 44 1 c42 2
65 -10 96 -49 9 -11 10 -21 4 -29 -5 -7 -20 -40 -33 -73 -60 -155 -197 -444
-241 -507 -11 -14 -19 -28 -19 -31 0 -10 -92 -162 -153 -252 -153 -228 -302
-409 -494 -602 -111 -112 -111 -105 -8 -106 229 -1 426 64 590 197 55 44 147
149 176 199 41 70 68 125 93 187 15 36 31 74 35 85 39 96 110 321 125 398 2
12 9 42 15 67 5 25 12 61 16 80 3 19 7 46 10 60 4 27 10 64 21 145 3 28 7 51
8 52 0 1 35 -31 78 -70 72 -68 231 -215 268 -247 17 -15 234 -216 276 -255 11
-11 54 -49 94 -85 l74 -65 -51 95 c-75 140 -195 381 -247 498 -58 128 -126
292 -126 301 0 4 93 8 206 8 l206 1 15 -37 c9 -20 16 -40 18 -46 1 -5 5 -17 8
-25 3 -8 20 -57 38 -109 l33 -94 22 69 c13 38 34 108 49 155 l26 86 203 1 204
0 -25 -62 c-13 -33 -30 -74 -38 -91 -7 -16 -22 -52 -33 -80 -39 -96 -227 -485
-289 -595 -40 -73 -32 -72 44 1 43 41 95 91 117 110 21 19 57 52 81 74 23 22
71 67 106 99 35 32 114 105 174 161 61 57 132 122 159 146 28 24 73 65 100 91
57 53 72 58 72 26 1 -23 10 -117 19 -193 9 -69 46 -257 67 -335 21 -83 102
-328 123 -375 91 -204 123 -258 205 -348 102 -111 216 -185 359 -231 111 -36
198 -49 306 -49 118 1 117 -8 8 101 -126 126 -220 231 -321 362 -45 58 -86
110 -91 116 -5 6 -44 64 -86 130 -43 65 -86 130 -95 144 -85 128 -275 516
-345 705 -12 33 -26 67 -29 76 -7 15 2 17 79 15 l86 -1 38 -90 c128 -304 304
-597 456 -764 108 -117 282 -223 429 -261 119 -30 157 -32 544 -31 206 1 273
4 270 13 -3 9 -195 130 -348 218 -14 8 -27 17 -30 20 -3 3 -39 27 -80 54 -195
128 -418 309 -597 485 -91 89 -285 308 -303 341 -9 16 53 17 914 17 508 0 928
3 933 6 5 3 9 480 9 1222 -1 818 2 1219 9 1225 6 5 36 22 68 39 62 32 137 90
233 180 75 70 176 159 274 242 41 35 77 66 80 69 3 3 30 25 60 50 30 25 66 55
80 66 14 12 68 57 120 100 52 43 97 81 100 84 3 3 30 25 60 50 30 24 82 71
115 103 l60 58 -70 -7 c-38 -3 -72 -8 -75 -9 -3 -2 -26 -6 -50 -10 -58 -8
-224 -32 -275 -41 -22 -3 -51 -7 -65 -9 -55 -7 -116 -16 -140 -20 -14 -2 -47
-7 -75 -10 -27 -4 -79 -11 -115 -16 -35 -6 -82 -12 -105 -14 -22 -3 -49 -6
-60 -9 -11 -2 -49 -7 -85 -11 -36 -4 -72 -9 -81 -10 -9 -2 -40 -6 -70 -10 -30
-3 -65 -8 -79 -10 -14 -2 -45 -6 -70 -9 -25 -3 -85 -10 -135 -16 -49 -6 -103
-13 -120 -15 -16 -2 -61 -6 -100 -10 -38 -4 -81 -8 -95 -10 -14 -2 -54 -6 -90
-10 -36 -3 -81 -8 -100 -10 -44 -5 -114 -12 -210 -20 -41 -3 -95 -8 -120 -10
-110 -12 -241 -22 -360 -30 -87 -5 -255 -17 -305 -20 -22 -2 -116 -6 -210 -10
-93 -4 -174 -9 -180 -12 -7 -4 -7 -2 0 5 6 5 28 13 50 16 22 3 50 7 61 10 12
2 37 7 55 10 56 10 92 16 144 26 28 6 64 12 80 15 47 7 198 35 215 40 8 2 31
6 50 9 43 7 597 103 665 116 28 5 64 11 80 13 17 3 46 8 65 11 19 3 49 8 65
11 17 3 59 10 95 16 36 6 79 13 95 15 17 2 41 6 55 9 14 3 43 8 65 11 22 2 51
7 65 9 173 29 271 45 300 49 19 3 73 12 120 20 47 8 103 17 125 21 22 3 123
19 225 36 102 17 199 32 215 35 17 2 55 9 85 15 30 5 73 12 95 15 172 25 452
148 555 244 9 8 32 29 52 46 48 42 158 174 158 190 0 7 4 14 9 16 5 2 53 81
107 176 55 95 106 185 115 200 8 15 33 59 54 97 21 39 61 111 89 160 66 117
79 141 107 195 12 25 25 47 28 50 6 5 13 18 84 150 22 41 50 91 61 110 12 19
27 46 34 60 6 14 16 32 22 40 9 14 59 105 127 230 30 56 50 115 36 107 -74
-44 -304 -183 -323 -196 -14 -10 -45 -28 -70 -42 -25 -13 -47 -26 -50 -29 -3
-3 -50 -32 -105 -64 -55 -32 -113 -67 -130 -77 -16 -10 -52 -30 -80 -45 -27
-14 -62 -35 -77 -45 -14 -11 -29 -19 -32 -19 -3 0 -34 -17 -68 -38 -35 -21
-83 -50 -108 -64 -25 -14 -119 -67 -210 -118 -91 -52 -181 -102 -200 -112 -19
-11 -60 -34 -92 -51 -31 -18 -76 -43 -100 -56 -23 -13 -65 -36 -93 -51 -85
-46 -285 -154 -390 -210 -280 -148 -342 -181 -490 -256 -161 -83 -595 -300
-670 -336 -22 -10 -47 -23 -55 -28 -8 -5 -78 -39 -155 -76 -77 -37 -189 -90
-250 -119 -171 -82 -357 -169 -485 -227 -25 -11 -81 -37 -125 -58 -44 -20
-114 -52 -155 -70 -41 -18 -102 -46 -135 -62 -33 -16 -53 -23 -45 -15 19 19
239 147 251 147 5 0 9 5 9 10 0 6 4 10 9 10 6 0 66 34 134 75 69 41 128 75
133 75 4 0 15 6 23 14 9 8 44 31 78 50 35 20 89 51 120 70 102 59 377 218 423
244 25 14 57 32 72 41 42 25 795 455 968 553 25 14 192 110 372 212 181 102
332 186 338 186 5 0 10 5 10 10 0 6 4 10 9 10 5 0 47 22 93 48 46 26 90 51 98
55 8 4 31 17 50 28 38 23 262 149 350 197 30 16 71 38 90 49 19 11 107 60 195
108 88 49 174 96 190 105 17 9 57 32 90 50 88 49 259 165 340 228 85 68 274
253 312 305 16 21 35 46 45 55 27 28 148 214 148 228 0 8 4 14 8 14 5 0 22 28
38 63 16 34 33 65 37 68 5 3 8 8 7 10 -1 2 4 18 10 34 6 17 10 30 9 30 -1 0 8
19 19 41 12 23 18 44 15 48 -4 3 0 6 7 6 7 0 11 3 7 6 -3 3 3 26 13 50 11 24
17 44 13 44 -3 0 -1 6 4 13 9 10 46 110 48 127 0 3 4 11 8 18 5 6 6 12 2 12
-3 0 1 13 10 30 8 16 15 38 15 50 0 11 5 20 12 20 6 0 9 3 6 6 -5 5 10 63 29
114 8 21 9 21 18 55 4 17 10 35 14 40 3 6 6 15 7 20 1 6 10 37 20 70 10 33 19
63 20 68 1 4 3 9 4 12 1 3 3 8 5 13 1 4 4 14 8 22 7 18 59 190 63 206 1 6 17
58 35 115 35 112 40 127 41 147 1 6 5 12 10 12 5 0 7 4 4 9 -3 5 1 25 9 44 8
19 11 37 8 41 -4 3 -2 6 4 6 5 0 10 6 11 13 1 19 9 47 27 100 18 54 15 77 -12
77 -22 0 -27 -5 -128 -145 -103 -142 -150 -205 -175 -232 -11 -12 -20 -25 -20
-29 0 -5 -80 -104 -100 -124 -3 -3 -17 -21 -32 -40 -15 -19 -38 -48 -53 -65
-15 -16 -46 -52 -70 -80 -24 -27 -53 -61 -65 -75 -109 -125 -419 -439 -558
-566 -24 -21 -56 -50 -71 -64 -15 -14 -58 -52 -97 -84 -38 -33 -73 -64 -79
-70 -5 -6 -37 -33 -70 -59 -33 -26 -69 -56 -80 -66 -11 -9 -51 -42 -90 -71
-38 -30 -84 -66 -100 -80 -17 -14 -44 -34 -59 -45 -15 -11 -43 -31 -61 -45
-18 -14 -43 -32 -55 -40 -13 -8 -35 -24 -49 -36 -14 -12 -61 -45 -105 -75 -43
-30 -101 -70 -129 -89 -28 -19 -58 -39 -67 -45 -29 -18 -155 -100 -165 -108
-18 -14 -160 -103 -175 -110 -8 -4 -27 -15 -42 -25 -15 -9 -69 -42 -120 -72
-51 -30 -102 -60 -113 -67 -11 -7 -27 -15 -35 -19 -8 -4 -17 -10 -20 -14 -3
-3 -26 -17 -52 -30 -27 -14 -48 -28 -48 -32 0 -5 -5 -8 -11 -8 -6 0 -70 -35
-142 -78 -73 -43 -188 -112 -257 -152 -69 -40 -136 -80 -150 -89 -14 -9 -30
-18 -35 -21 -9 -5 -102 -60 -360 -213 -55 -33 -120 -71 -145 -85 -25 -14 -56
-33 -70 -42 -14 -9 -29 -19 -35 -21 -5 -2 -73 -42 -150 -88 -77 -47 -149 -89
-160 -95 -99 -54 -506 -298 -548 -330 -276 -207 -478 -545 -663 -1108 -27 -82
-52 -148 -56 -148 -26 0 -163 248 -207 372 -56 160 -65 235 -63 511 l2 249
-30 91 c-39 117 -94 210 -173 291 -117 121 -248 192 -477 260 -216 64 -414 44
-550 -54 -80 -57 -103 -69 -152 -75 -24 -2 -67 -7 -95 -10 -136 -14 -254 -79
-293 -160 -22 -45 -38 -150 -27 -178 4 -12 15 -12 69 -2 212 39 385 -32 482
-197 47 -81 66 -177 62 -312 -2 -67 -7 -137 -11 -156 -12 -62 -74 -222 -100
-261 -14 -21 -25 -41 -25 -45 0 -3 -28 -39 -61 -81 -92 -112 -221 -200 -349
-239 -85 -26 -78 -35 -150 183 -36 108 -70 208 -76 222 -6 14 -24 58 -39 96
-63 157 -168 341 -275 479 -66 87 -224 242 -315 311 -69 52 -297 195 -311 195
-2 0 -21 10 -42 23 -20 13 -67 40 -104 60 -66 36 -646 373 -846 491 -56 34
-110 66 -120 71 -54 32 -671 400 -692 413 -45 29 -284 172 -287 172 -8 0 -419
264 -421 271 -2 5 -8 9 -13 9 -9 0 -148 93 -223 150 -19 14 -44 32 -56 40 -39
27 -195 144 -208 157 -7 7 -16 13 -20 13 -4 0 -23 15 -43 33 -19 17 -60 51
-90 74 -70 53 -107 83 -133 108 -12 11 -51 45 -86 75 -172 146 -469 432 -625
602 -72 79 -177 195 -202 225 -10 12 -34 40 -53 63 -19 23 -40 47 -45 54 -6 6
-30 36 -55 66 -25 30 -48 57 -52 58 -5 2 -8 8 -8 13 0 5 -8 17 -17 27 -10 10
-25 29 -33 42 -8 12 -19 28 -25 34 -15 16 -78 100 -95 127 -8 12 -22 30 -30
39 -9 8 -27 34 -40 55 -13 22 -32 49 -42 59 -10 11 -18 23 -18 28 0 4 -14 15
-30 23 l-31 16 3 -28z m6608 -3584 c0 -5 4 -7 10 -4 5 3 29 1 52 -6 48 -13 49
-13 101 -24 20 -4 40 -12 44 -18 3 -5 2 -7 -4 -4 -7 5 -158 19 -210 20 -15 0
-18 47 -3 47 6 0 10 -5 10 -11z m1640 -1680 c36 -11 72 -22 80 -24 23 -6 101
-29 240 -70 69 -20 132 -38 140 -40 8 -2 33 -10 55 -18 39 -15 35 -15 -90 -13
-94 1 -140 6 -165 18 -19 9 -80 36 -135 60 -82 37 -212 108 -194 108 2 0 33
-10 69 -21z m-2625 -2 c-11 -7 -54 -28 -95 -47 -41 -18 -113 -51 -160 -74 -83
-39 -88 -40 -200 -42 l-115 -1 55 17 c441 143 561 178 515 147z m2488 -60
c111 -113 109 -108 46 -104 l-54 3 -38 69 c-71 128 -57 137 46 32z m-2331 21
c-11 -18 -32 -54 -47 -80 -24 -43 -31 -48 -61 -48 -19 0 -34 2 -34 5 0 6 151
155 157 155 3 0 -4 -15 -15 -32z m141 -100 c6 -22 3 -25 -18 -25 -25 0 -25 1
-24 81 l1 81 18 -56 c9 -31 20 -68 23 -81z m2017 54 c0 -76 -1 -78 -25 -80
-14 -1 -25 3 -25 8 0 12 43 150 47 150 2 0 3 -35 3 -78z"/>
<path d="M7085 5285 c23 -57 84 -203 106 -252 67 -151 85 -378 40 -523 -93
-304 -456 -755 -886 -1101 -189 -152 -464 -335 -687 -458 -43 -23 -80 -46 -83
-51 -6 -9 756 -6 800 4 209 48 349 141 500 331 22 28 43 52 46 55 10 10 136
195 172 256 34 57 135 256 170 334 87 197 194 560 201 680 7 108 -43 300 -101
392 -12 21 -23 44 -23 52 0 8 -4 16 -8 18 -5 2 -26 30 -48 63 -21 33 -79 100
-127 150 -83 85 -87 88 -72 50z"/>
<path d="M8490 5278 c-158 -125 -283 -325 -325 -516 -3 -12 -8 -32 -11 -44 -3
-13 -7 -70 -9 -128 -3 -86 1 -122 21 -200 63 -245 154 -486 263 -695 225 -434
435 -665 685 -755 47 -17 94 -29 106 -29 3 0 19 -5 35 -12 39 -17 746 -21 757
-5 4 5 -28 30 -74 58 -45 26 -82 48 -84 48 -10 0 -376 234 -409 262 -5 5 -53
41 -105 80 -453 339 -877 848 -976 1173 -27 90 -25 305 5 400 12 39 23 77 25
86 2 8 13 35 25 60 36 79 100 233 98 235 -1 1 -13 -7 -27 -18z"/>
<path d="M7987 4343 c-6 -33 0 -456 7 -493 3 -14 7 -46 10 -72 32 -287 132
-640 252 -894 123 -259 355 -439 634 -489 49 -9 280 -19 280 -12 0 3 -42 48
-92 99 -478 482 -795 1012 -1028 1716 -45 137 -59 167 -63 145z"/>
<path d="M7510 4096 c-57 -132 -119 -273 -137 -312 -18 -40 -33 -74 -33 -77 0
-8 -104 -226 -169 -357 -156 -312 -333 -549 -624 -840 -113 -114 -116 -118
-90 -123 35 -7 228 -2 268 7 181 42 356 141 465 263 97 109 182 271 262 501
31 90 73 231 82 273 3 13 14 65 25 114 43 193 63 401 64 643 0 78 -2 144 -4
146 -2 2 -51 -105 -109 -238z"/>
<path d="M7787 3803 c-5 -8 -43 -169 -50 -213 -3 -14 -10 -43 -15 -65 -6 -22
-13 -53 -16 -70 -2 -16 -14 -73 -26 -125 -12 -52 -24 -106 -26 -120 -3 -14 -7
-33 -10 -42 -3 -10 -7 -28 -10 -41 -2 -13 -18 -88 -34 -168 -71 -333 -77 -406
-46 -619 10 -66 45 -189 76 -264 51 -122 168 -304 183 -285 17 20 111 187 135
239 38 83 88 239 99 310 12 81 9 357 -5 415 -9 40 -61 283 -86 405 -3 14 -12
57 -21 95 -8 39 -18 82 -20 97 -3 16 -12 56 -20 90 -16 71 -24 109 -31 153 -3
17 -10 48 -16 70 -6 22 -13 56 -15 75 -8 55 -32 87 -46 63z"/>
</g>
</svg>
